# xmcd
#
# Track frame offsets:
#	150
#	23592
#	36610
#	52069
#	63470
#	82321
#	96772
#	113779
#	129163
#	143270
#	158559
#	170127
#	181621
#	192346
#	204640
#	217915
#	232862
#	247093
#	262897
#	273513
#	295773
#
# Disc length: 4440 seconds
#
# Revision: 1
# Processed by: cddbd v1.5.2PL0 Copyright (c) Steve Scherf et al.
# Submitted via: dBpowerAMP V4.0
#
DISCID=2a115615
DTITLE=Various Artist - The MOst Awesome Line Dancing Album 9
DYEAR=2004
DGENRE=Country
TTITLE0=Chris Cagle - It Takes Two
TTITLE1=Susan Ashton - Come On Out Of The Rain
TTITLE2=Dierks Bentley - I Bought The Shoes
TTITLE3=Jameson Clark - Waitin' On The Whiskey
TTITLE4=Keith Urban - Who Wouldn't Want To Be Me
TTITLE5=Suzy Bogguss - Heartache
TTITLE6=Eddie Rabbitt - Go To Sleep Big Bertha
TTITLE7=Lacy J Dalton - Restless
TTITLE8=Wild Rose - Your One And Only
TTITLE9=Tanya Tucker - If It Don't Come Easy
TTITLE10=Glen Campbell - Once A Day
TTITLE11=Crystal Gayle - Never Ending Song Of Love
TTITLE12=Lisa Brokop - Before He Kissed Me
TTITLE13=Dr Hook - Makin' Love And Music
TTITLE14=Eddy Raven - Too Much Candy For A Dime
TTITLE15=Steven Wayne Horton - Nothin' Shakin'
TTITLE16=Steve Taylor - I'm Ready For Love
TTITLE17=Shane Worley - What's Goin' On
TTITLE18=Marsha Britton - Two Step Your Baby's Blues Away
TTITLE19=Lori Johnson - My Baby Loves To Watch me Dance
TTITLE20=DATA
EXTD=The Most Awesome Line Dancing Album 9
EXTT0=
EXTT1=
EXTT2=
EXTT3=
EXTT4=
EXTT5=
EXTT6=
EXTT7=
EXTT8=
EXTT9=
EXTT10=
EXTT11=
EXTT12=
EXTT13=
EXTT14=
EXTT15=
EXTT16=
EXTT17=
EXTT18=
EXTT19=
EXTT20=
PLAYORDER=
